  0
SECTION
  2
HEADER
  9
$MEASUREMENT
  70
  1
  9
$INSUNITS
  70
  4
  0
ENDSEC
  0
SECTION
  2
TABLES
  0
TABLE
  2
LTYPE
 70
     1
  0
LTYPE
  2
CONTINUOUS
 70
    64
  3
Ausgezogene Linie
 72
    65
 73
     0
 40
0.0
  0
ENDTAB
  0
TABLE
  2
LAYER
 70
     3
  0
LAYER
  2
Contour
 70
    64
 62
     7
  6
CONTINUOUS
  0
LAYER
  2
Engraving
 70
    64
 62
     7
  6
CONTINUOUS
  0
LAYER
  2
Reference_points
 70
    64
 62
     1
  6
CONTINUOUS
  0
ENDTAB
  0
TABLE
  2
STYLE
 70
     1
  0
STYLE
  2
TXT
 70
    64
 40
0.0
 41
1.0
 50
0.0
 71
     0
 42
3.500000
  3
TXT
  0
ENDTAB
  0
ENDSEC
  0
SECTION
  2
BLOCKS
  0
ENDSEC
  0
SECTION
  2
ENTITIES
  0
LINE
  8
Contour
 62
   7
 39
0.100
  6
CONTINUOUS
 10
19.98000
 20
128.40000
 30
 0
 11
19.98000
 21
0.00000
  0
LINE
  8
Contour
 62
   7
 39
0.100
  6
CONTINUOUS
 10
19.98000
 20
0.00000
 30
 0
 11
0.00000
 21
0.00000
  0
LINE
  8
Contour
 62
   7
 39
0.100
  6
CONTINUOUS
 10
0.00000
 20
0.00000
 30
 0
 11
0.00000
 21
128.40000
  0
LINE
  8
Contour
 62
   7
 39
0.100
  6
CONTINUOUS
 10
0.00000
 20
128.40000
 30
 0
 11
19.98000
 21
128.40000
  0
LINE
  8
Engraving
 62
   7
 39
0.400
  6
CONTINUOUS
 10
3.78100
 20
67.40935
 30
 0
 11
1.21800
 21
68.13587
  0
ARC
  8
Engraving
 62
   7
 39
0.400
  6
CONTINUOUS
 10
1.76994
 20
69.24364
 30
 0
 40
0.58860
 50
193.59010
 51
287.25422
  0
ARC
  8
Engraving
 62
   7
 39
0.400
  6
CONTINUOUS
 10
1.72797
 20
69.26263
 30
 0
 40
0.55300
 50
96.85332
 51
196.52541
  0
ARC
  8
Engraving
 62
   7
 39
0.400
  6
CONTINUOUS
 10
1.84328
 20
68.58917
 30
 0
 40
1.23587
 50
57.37496
 51
98.43552
  0
ARC
  8
Engraving
 62
   7
 39
0.400
  6
CONTINUOUS
 10
0.99073
 20
67.10091
 30
 0
 40
2.95016
 50
42.79903
 51
59.01325
  0
LINE
  8
Engraving
 62
   7
 39
0.400
  6
CONTINUOUS
 10
3.15539
 20
69.10534
 30
 0
 11
3.63973
 21
68.64117
  0
LINE
  8
Engraving
 62
   7
 39
0.400
  6
CONTINUOUS
 10
3.63973
 20
68.64117
 30
 0
 11
3.78100
 21
68.64117
  0
LINE
  8
Engraving
 62
   7
 39
0.400
  6
CONTINUOUS
 10
3.78100
 20
68.64117
 30
 0
 11
3.78100
 21
69.83186
  0
LINE
  8
Engraving
 62
   7
 39
0.400
  6
CONTINUOUS
 10
3.78100
 20
69.83186
 30
 0
 11
3.78100
 21
68.64117
  0
LINE
  8
Engraving
 62
   7
 39
0.400
  6
CONTINUOUS
 10
3.78100
 20
57.81935
 30
 0
 11
1.21800
 21
58.54587
  0
LINE
  8
Engraving
 62
   7
 39
0.400
  6
CONTINUOUS
 10
3.78100
 20
59.97950
 30
 0
 11
1.21800
 21
59.97950
  0
LINE
  8
Engraving
 62
   7
 39
0.400
  6
CONTINUOUS
 10
1.21800
 20
59.97950
 30
 0
 11
1.21800
 21
59.87860
  0
LINE
  8
Engraving
 62
   7
 39
0.400
  6
CONTINUOUS
 10
1.21800
 20
59.87860
 30
 0
 11
3.01412
 21
59.05117
  0
LINE
  8
Engraving
 62
   7
 39
0.400
  6
CONTINUOUS
 10
3.01412
 20
59.05117
 30
 0
 11
3.01412
 21
60.36294
  0
LINE
  8
Engraving
 62
   7
 39
0.400
  6
CONTINUOUS
 10
3.78100
 20
48.37035
 30
 0
 11
1.21800
 21
49.09687
  0
LINE
  8
Engraving
 62
   7
 39
0.400
  6
CONTINUOUS
 10
2.40869
 20
49.90489
 30
 0
 11
2.40869
 21
50.44978
  0
LINE
  8
Engraving
 62
   7
 39
0.400
  6
CONTINUOUS
 10
2.40869
 20
50.44978
 30
 0
 11
2.30778
 21
50.59105
  0
LINE
  8
Engraving
 62
   7
 39
0.400
  6
CONTINUOUS
 10
2.30778
 20
50.59105
 30
 0
 11
2.20687
 21
50.67177
  0
LINE
  8
Engraving
 62
   7
 39
0.400
  6
CONTINUOUS
 10
2.20687
 20
50.67177
 30
 0
 11
2.04543
 21
50.73231
  0
LINE
  8
Engraving
 62
   7
 39
0.400
  6
CONTINUOUS
 10
2.04543
 20
50.73231
 30
 0
 11
1.66198
 21
50.73231
  0
LINE
  8
Engraving
 62
   7
 39
0.400
  6
CONTINUOUS
 10
1.66198
 20
50.73231
 30
 0
 11
1.54090
 21
50.71213
  0
LINE
  8
Engraving
 62
   7
 39
0.400
  6
CONTINUOUS
 10
1.54090
 20
50.71213
 30
 0
 11
1.39963
 21
50.63141
  0
LINE
  8
Engraving
 62
   7
 39
0.400
  6
CONTINUOUS
 10
1.39963
 20
50.63141
 30
 0
 11
1.27854
 21
50.53050
  0
LINE
  8
Engraving
 62
   7
 39
0.400
  6
CONTINUOUS
 10
1.27854
 20
50.53050
 30
 0
 11
1.21800
 21
50.38924
  0
LINE
  8
Engraving
 62
   7
 39
0.400
  6
CONTINUOUS
 10
1.21800
 20
50.38924
 30
 0
 11
1.19782
 21
50.26815
  0
LINE
  8
Engraving
 62
   7
 39
0.400
  6
CONTINUOUS
 10
1.19782
 20
50.26815
 30
 0
 11
1.19782
 21
50.12688
  0
LINE
  8
Engraving
 62
   7
 39
0.400
  6
CONTINUOUS
 10
1.19782
 20
50.12688
 30
 0
 11
1.21800
 21
49.94525
  0
LINE
  8
Engraving
 62
   7
 39
0.400
  6
CONTINUOUS
 10
1.21800
 20
49.94525
 30
 0
 11
1.29872
 21
49.82417
  0
LINE
  8
Engraving
 62
   7
 39
0.400
  6
CONTINUOUS
 10
1.29872
 20
49.82417
 30
 0
 11
1.39963
 21
49.72326
  0
LINE
  8
Engraving
 62
   7
 39
0.400
  6
CONTINUOUS
 10
1.39963
 20
49.72326
 30
 0
 11
1.52072
 21
49.66272
  0
LINE
  8
Engraving
 62
   7
 39
0.400
  6
CONTINUOUS
 10
1.52072
 20
49.66272
 30
 0
 11
1.68217
 21
49.64254
  0
LINE
  8
Engraving
 62
   7
 39
0.400
  6
CONTINUOUS
 10
1.68217
 20
49.64254
 30
 0
 11
2.04543
 21
49.64254
  0
LINE
  8
Engraving
 62
   7
 39
0.400
  6
CONTINUOUS
 10
2.04543
 20
49.64254
 30
 0
 11
2.20687
 21
49.68290
  0
LINE
  8
Engraving
 62
   7
 39
0.400
  6
CONTINUOUS
 10
2.20687
 20
49.68290
 30
 0
 11
2.30778
 21
49.74344
  0
LINE
  8
Engraving
 62
   7
 39
0.400
  6
CONTINUOUS
 10
2.30778
 20
49.74344
 30
 0
 11
2.40869
 21
49.90489
  0
LINE
  8
Engraving
 62
   7
 39
0.400
  6
CONTINUOUS
 10
2.40869
 20
49.90489
 30
 0
 11
2.50959
 21
49.74344
  0
LINE
  8
Engraving
 62
   7
 39
0.400
  6
CONTINUOUS
 10
2.50959
 20
49.74344
 30
 0
 11
2.61050
 21
49.66272
  0
LINE
  8
Engraving
 62
   7
 39
0.400
  6
CONTINUOUS
 10
2.61050
 20
49.66272
 30
 0
 11
2.81231
 21
49.60217
  0
LINE
  8
Engraving
 62
   7
 39
0.400
  6
CONTINUOUS
 10
2.81231
 20
49.60217
 30
 0
 11
3.01412
 21
49.60217
  0
LINE
  8
Engraving
 62
   7
 39
0.400
  6
CONTINUOUS
 10
3.01412
 20
49.60217
 30
 0
 11
3.25629
 21
49.60217
  0
LINE
  8
Engraving
 62
   7
 39
0.400
  6
CONTINUOUS
 10
3.25629
 20
49.60217
 30
 0
 11
3.47828
 21
49.64254
  0
LINE
  8
Engraving
 62
   7
 39
0.400
  6
CONTINUOUS
 10
3.47828
 20
49.64254
 30
 0
 11
3.61955
 21
49.72326
  0
LINE
  8
Engraving
 62
   7
 39
0.400
  6
CONTINUOUS
 10
3.61955
 20
49.72326
 30
 0
 11
3.72046
 21
49.82417
  0
LINE
  8
Engraving
 62
   7
 39
0.400
  6
CONTINUOUS
 10
3.72046
 20
49.82417
 30
 0
 11
3.78100
 21
49.96543
  0
LINE
  8
Engraving
 62
   7
 39
0.400
  6
CONTINUOUS
 10
3.78100
 20
49.96543
 30
 0
 11
3.80118
 21
50.12688
  0
LINE
  8
Engraving
 62
   7
 39
0.400
  6
CONTINUOUS
 10
3.80118
 20
50.12688
 30
 0
 11
3.80118
 21
50.26815
  0
LINE
  8
Engraving
 62
   7
 39
0.400
  6
CONTINUOUS
 10
3.80118
 20
50.26815
 30
 0
 11
3.78100
 21
50.42960
  0
LINE
  8
Engraving
 62
   7
 39
0.400
  6
CONTINUOUS
 10
3.78100
 20
50.42960
 30
 0
 11
3.68009
 21
50.57087
  0
LINE
  8
Engraving
 62
   7
 39
0.400
  6
CONTINUOUS
 10
3.68009
 20
50.57087
 30
 0
 11
3.53883
 21
50.69195
  0
LINE
  8
Engraving
 62
   7
 39
0.400
  6
CONTINUOUS
 10
3.53883
 20
50.69195
 30
 0
 11
3.37738
 21
50.73231
  0
LINE
  8
Engraving
 62
   7
 39
0.400
  6
CONTINUOUS
 10
3.37738
 20
50.73231
 30
 0
 11
3.29665
 21
50.75250
  0
LINE
  8
Engraving
 62
   7
 39
0.400
  6
CONTINUOUS
 10
3.29665
 20
50.75250
 30
 0
 11
2.81231
 21
50.75250
  0
LINE
  8
Engraving
 62
   7
 39
0.400
  6
CONTINUOUS
 10
2.81231
 20
50.75250
 30
 0
 11
2.67104
 21
50.73231
  0
LINE
  8
Engraving
 62
   7
 39
0.400
  6
CONTINUOUS
 10
2.67104
 20
50.73231
 30
 0
 11
2.57013
 21
50.67177
  0
LINE
  8
Engraving
 62
   7
 39
0.400
  6
CONTINUOUS
 10
2.57013
 20
50.67177
 30
 0
 11
2.48941
 21
50.59105
  0
LINE
  8
Engraving
 62
   7
 39
0.400
  6
CONTINUOUS
 10
2.48941
 20
50.59105
 30
 0
 11
2.40869
 21
50.44978
  0
LINE
  8
Engraving
 62
   7
 39
0.400
  6
CONTINUOUS
 10
3.78100
 20
38.29535
 30
 0
 11
1.21800
 21
39.02187
  0
LINE
  8
Engraving
 62
   7
 39
0.400
  6
CONTINUOUS
 10
1.72253
 20
39.54735
 30
 0
 11
1.54090
 21
39.80971
  0
LINE
  8
Engraving
 62
   7
 39
0.400
  6
CONTINUOUS
 10
1.54090
 20
39.80971
 30
 0
 11
1.21800
 21
40.07206
  0
LINE
  8
Engraving
 62
   7
 39
0.400
  6
CONTINUOUS
 10
1.21800
 20
40.07206
 30
 0
 11
3.78100
 21
40.07206
  0
LINE
  8
Engraving
 62
   7
 39
0.400
  6
CONTINUOUS
 10
1.90316
 20
41.76686
 30
 0
 11
1.70135
 21
41.76686
  0
LINE
  8
Engraving
 62
   7
 39
0.400
  6
CONTINUOUS
 10
1.70135
 20
41.76686
 30
 0
 11
1.51972
 21
41.72650
  0
LINE
  8
Engraving
 62
   7
 39
0.400
  6
CONTINUOUS
 10
1.51972
 20
41.72650
 30
 0
 11
1.39863
 21
41.66595
  0
LINE
  8
Engraving
 62
   7
 39
0.400
  6
CONTINUOUS
 10
1.39863
 20
41.66595
 30
 0
 11
1.29772
 21
41.56505
  0
LINE
  8
Engraving
 62
   7
 39
0.400
  6
CONTINUOUS
 10
1.29772
 20
41.56505
 30
 0
 11
1.21700
 21
41.42378
  0
LINE
  8
Engraving
 62
   7
 39
0.400
  6
CONTINUOUS
 10
1.21700
 20
41.42378
 30
 0
 11
1.19682
 21
41.24215
  0
LINE
  8
Engraving
 62
   7
 39
0.400
  6
CONTINUOUS
 10
1.19682
 20
41.24215
 30
 0
 11
1.19682
 21
41.10088
  0
LINE
  8
Engraving
 62
   7
 39
0.400
  6
CONTINUOUS
 10
1.19682
 20
41.10088
 30
 0
 11
1.21700
 21
40.93943
  0
LINE
  8
Engraving
 62
   7
 39
0.400
  6
CONTINUOUS
 10
1.21700
 20
40.93943
 30
 0
 11
1.27754
 21
40.81835
  0
LINE
  8
Engraving
 62
   7
 39
0.400
  6
CONTINUOUS
 10
1.27754
 20
40.81835
 30
 0
 11
1.39863
 21
40.69726
  0
LINE
  8
Engraving
 62
   7
 39
0.400
  6
CONTINUOUS
 10
1.39863
 20
40.69726
 30
 0
 11
1.51972
 21
40.63672
  0
LINE
  8
Engraving
 62
   7
 39
0.400
  6
CONTINUOUS
 10
1.51972
 20
40.63672
 30
 0
 11
1.70135
 21
40.59635
  0
LINE
  8
Engraving
 62
   7
 39
0.400
  6
CONTINUOUS
 10
1.70135
 20
40.59635
 30
 0
 11
2.69022
 21
40.59635
  0
LINE
  8
Engraving
 62
   7
 39
0.400
  6
CONTINUOUS
 10
2.69022
 20
40.59635
 30
 0
 11
3.29565
 21
40.59635
  0
LINE
  8
Engraving
 62
   7
 39
0.400
  6
CONTINUOUS
 10
3.29565
 20
40.59635
 30
 0
 11
3.49746
 21
40.63672
  0
LINE
  8
Engraving
 62
   7
 39
0.400
  6
CONTINUOUS
 10
3.49746
 20
40.63672
 30
 0
 11
3.65891
 21
40.73762
  0
LINE
  8
Engraving
 62
   7
 39
0.400
  6
CONTINUOUS
 10
3.65891
 20
40.73762
 30
 0
 11
3.75982
 21
40.87889
  0
LINE
  8
Engraving
 62
   7
 39
0.400
  6
CONTINUOUS
 10
3.75982
 20
40.87889
 30
 0
 11
3.80018
 21
41.10088
  0
LINE
  8
Engraving
 62
   7
 39
0.400
  6
CONTINUOUS
 10
3.80018
 20
41.10088
 30
 0
 11
3.80018
 21
41.24215
  0
LINE
  8
Engraving
 62
   7
 39
0.400
  6
CONTINUOUS
 10
3.80018
 20
41.24215
 30
 0
 11
3.75982
 21
41.46414
  0
LINE
  8
Engraving
 62
   7
 39
0.400
  6
CONTINUOUS
 10
3.75982
 20
41.46414
 30
 0
 11
3.63873
 21
41.62559
  0
LINE
  8
Engraving
 62
   7
 39
0.400
  6
CONTINUOUS
 10
3.63873
 20
41.62559
 30
 0
 11
3.47728
 21
41.72650
  0
LINE
  8
Engraving
 62
   7
 39
0.400
  6
CONTINUOUS
 10
3.47728
 20
41.72650
 30
 0
 11
3.29565
 21
41.76686
  0
LINE
  8
Engraving
 62
   7
 39
0.400
  6
CONTINUOUS
 10
3.29565
 20
41.76686
 30
 0
 11
2.64986
 21
41.76686
  0
LINE
  8
Engraving
 62
   7
 39
0.400
  6
CONTINUOUS
 10
2.64986
 20
41.76686
 30
 0
 11
2.46823
 21
41.72650
  0
LINE
  8
Engraving
 62
   7
 39
0.400
  6
CONTINUOUS
 10
2.46823
 20
41.72650
 30
 0
 11
2.28660
 21
41.60541
  0
LINE
  8
Engraving
 62
   7
 39
0.400
  6
CONTINUOUS
 10
2.28660
 20
41.60541
 30
 0
 11
2.18569
 21
41.46414
  0
LINE
  8
Engraving
 62
   7
 39
0.400
  6
CONTINUOUS
 10
2.18569
 20
41.46414
 30
 0
 11
2.12515
 21
41.20179
  0
LINE
  8
Engraving
 62
   7
 39
0.400
  6
CONTINUOUS
 10
2.12515
 20
41.20179
 30
 0
 11
2.16551
 21
40.95961
  0
LINE
  8
Engraving
 62
   7
 39
0.400
  6
CONTINUOUS
 10
2.16551
 20
40.95961
 30
 0
 11
2.28660
 21
40.75780
  0
LINE
  8
Engraving
 62
   7
 39
0.400
  6
CONTINUOUS
 10
2.28660
 20
40.75780
 30
 0
 11
2.52877
 21
40.59635
  0
LINE
  8
Engraving
 62
   7
 39
0.400
  6
CONTINUOUS
 10
3.78100
 20
28.46235
 30
 0
 11
1.21800
 21
29.18887
  0
LINE
  8
Engraving
 62
   7
 39
0.400
  6
CONTINUOUS
 10
3.03430
 20
29.69417
 30
 0
 11
3.27647
 21
29.69417
  0
LINE
  8
Engraving
 62
   7
 39
0.400
  6
CONTINUOUS
 10
3.27647
 20
29.69417
 30
 0
 11
3.47828
 21
29.73454
  0
LINE
  8
Engraving
 62
   7
 39
0.400
  6
CONTINUOUS
 10
3.47828
 20
29.73454
 30
 0
 11
3.61955
 21
29.83544
  0
LINE
  8
Engraving
 62
   7
 39
0.400
  6
CONTINUOUS
 10
3.61955
 20
29.83544
 30
 0
 11
3.72046
 21
29.95653
  0
LINE
  8
Engraving
 62
   7
 39
0.400
  6
CONTINUOUS
 10
3.72046
 20
29.95653
 30
 0
 11
3.78100
 21
30.15834
  0
LINE
  8
Engraving
 62
   7
 39
0.400
  6
CONTINUOUS
 10
3.78100
 20
30.15834
 30
 0
 11
3.80118
 21
30.25924
  0
LINE
  8
Engraving
 62
   7
 39
0.400
  6
CONTINUOUS
 10
3.80118
 20
30.25924
 30
 0
 11
3.78100
 21
30.44087
  0
LINE
  8
Engraving
 62
   7
 39
0.400
  6
CONTINUOUS
 10
3.78100
 20
30.44087
 30
 0
 11
3.72046
 21
30.58214
  0
LINE
  8
Engraving
 62
   7
 39
0.400
  6
CONTINUOUS
 10
3.72046
 20
30.58214
 30
 0
 11
3.61955
 21
30.70323
  0
LINE
  8
Engraving
 62
   7
 39
0.400
  6
CONTINUOUS
 10
3.61955
 20
30.70323
 30
 0
 11
3.47828
 21
30.80413
  0
LINE
  8
Engraving
 62
   7
 39
0.400
  6
CONTINUOUS
 10
3.47828
 20
30.80413
 30
 0
 11
3.27647
 21
30.84450
  0
LINE
  8
Engraving
 62
   7
 39
0.400
  6
CONTINUOUS
 10
3.27647
 20
30.84450
 30
 0
 11
2.81231
 21
30.84450
  0
LINE
  8
Engraving
 62
   7
 39
0.400
  6
CONTINUOUS
 10
2.81231
 20
30.84450
 30
 0
 11
2.63068
 21
30.80413
  0
LINE
  8
Engraving
 62
   7
 39
0.400
  6
CONTINUOUS
 10
2.63068
 20
30.80413
 30
 0
 11
2.48941
 21
30.70323
  0
LINE
  8
Engraving
 62
   7
 39
0.400
  6
CONTINUOUS
 10
2.48941
 20
30.70323
 30
 0
 11
2.40869
 21
30.52160
  0
LINE
  8
Engraving
 62
   7
 39
0.400
  6
CONTINUOUS
 10
2.40869
 20
30.52160
 30
 0
 11
2.40869
 21
30.03725
  0
LINE
  8
Engraving
 62
   7
 39
0.400
  6
CONTINUOUS
 10
2.40869
 20
30.03725
 30
 0
 11
2.40869
 21
30.52160
  0
LINE
  8
Engraving
 62
   7
 39
0.400
  6
CONTINUOUS
 10
2.40869
 20
30.52160
 30
 0
 11
2.28760
 21
30.68305
  0
LINE
  8
Engraving
 62
   7
 39
0.400
  6
CONTINUOUS
 10
2.28760
 20
30.68305
 30
 0
 11
2.18669
 21
30.78395
  0
LINE
  8
Engraving
 62
   7
 39
0.400
  6
CONTINUOUS
 10
2.18669
 20
30.78395
 30
 0
 11
2.04543
 21
30.80413
  0
LINE
  8
Engraving
 62
   7
 39
0.400
  6
CONTINUOUS
 10
2.04543
 20
30.80413
 30
 0
 11
1.66198
 21
30.80413
  0
LINE
  8
Engraving
 62
   7
 39
0.400
  6
CONTINUOUS
 10
1.66198
 20
30.80413
 30
 0
 11
1.50054
 21
30.78395
  0
LINE
  8
Engraving
 62
   7
 39
0.400
  6
CONTINUOUS
 10
1.50054
 20
30.78395
 30
 0
 11
1.35927
 21
30.70323
  0
LINE
  8
Engraving
 62
   7
 39
0.400
  6
CONTINUOUS
 10
1.35927
 20
30.70323
 30
 0
 11
1.23818
 21
30.58214
  0
LINE
  8
Engraving
 62
   7
 39
0.400
  6
CONTINUOUS
 10
1.23818
 20
30.58214
 30
 0
 11
1.19782
 21
30.44087
  0
LINE
  8
Engraving
 62
   7
 39
0.400
  6
CONTINUOUS
 10
1.19782
 20
30.44087
 30
 0
 11
1.17764
 21
30.31979
  0
LINE
  8
Engraving
 62
   7
 39
0.400
  6
CONTINUOUS
 10
1.17764
 20
30.31979
 30
 0
 11
1.17764
 21
30.21888
  0
LINE
  8
Engraving
 62
   7
 39
0.400
  6
CONTINUOUS
 10
1.17764
 20
30.21888
 30
 0
 11
1.19782
 21
30.05743
  0
LINE
  8
Engraving
 62
   7
 39
0.400
  6
CONTINUOUS
 10
1.19782
 20
30.05743
 30
 0
 11
1.27854
 21
29.91617
  0
LINE
  8
Engraving
 62
   7
 39
0.400
  6
CONTINUOUS
 10
1.27854
 20
29.91617
 30
 0
 11
1.37945
 21
29.81526
  0
LINE
  8
Engraving
 62
   7
 39
0.400
  6
CONTINUOUS
 10
1.37945
 20
29.81526
 30
 0
 11
1.52072
 21
29.75472
  0
LINE
  8
Engraving
 62
   7
 39
0.400
  6
CONTINUOUS
 10
1.52072
 20
29.75472
 30
 0
 11
1.66198
 21
29.71435
  0
LINE
  8
Engraving
 62
   7
 39
0.400
  6
CONTINUOUS
 10
1.66198
 20
29.71435
 30
 0
 11
1.90416
 21
29.71435
  0
ARC
  8
Engraving
 62
   7
 39
0.400
  6
CONTINUOUS
 10
1.76894
 20
31.95064
 30
 0
 40
0.58860
 50
193.59010
 51
287.25422
  0
ARC
  8
Engraving
 62
   7
 39
0.400
  6
CONTINUOUS
 10
1.72697
 20
31.96963
 30
 0
 40
0.55300
 50
96.85332
 51
196.52541
  0
ARC
  8
Engraving
 62
   7
 39
0.400
  6
CONTINUOUS
 10
1.84228
 20
31.29617
 30
 0
 40
1.23587
 50
57.37496
 51
98.43552
  0
ARC
  8
Engraving
 62
   7
 39
0.400
  6
CONTINUOUS
 10
0.98973
 20
29.80791
 30
 0
 40
2.95016
 50
42.79903
 51
59.01325
  0
LINE
  8
Engraving
 62
   7
 39
0.400
  6
CONTINUOUS
 10
3.15439
 20
31.81234
 30
 0
 11
3.63873
 21
31.34817
  0
LINE
  8
Engraving
 62
   7
 39
0.400
  6
CONTINUOUS
 10
3.63873
 20
31.34817
 30
 0
 11
3.78000
 21
31.34817
  0
LINE
  8
Engraving
 62
   7
 39
0.400
  6
CONTINUOUS
 10
3.78000
 20
31.34817
 30
 0
 11
3.78000
 21
32.53886
  0
LINE
  8
Engraving
 62
   7
 39
0.400
  6
CONTINUOUS
 10
3.78000
 20
32.53886
 30
 0
 11
3.78000
 21
31.34817
  0
LINE
  8
Engraving
 62
   7
 39
0.400
  6
CONTINUOUS
 10
3.78100
 20
18.86135
 30
 0
 11
1.21800
 21
19.58787
  0
LINE
  8
Engraving
 62
   7
 39
0.400
  6
CONTINUOUS
 10
1.90416
 20
21.28386
 30
 0
 11
1.70235
 21
21.28386
  0
LINE
  8
Engraving
 62
   7
 39
0.400
  6
CONTINUOUS
 10
1.70235
 20
21.28386
 30
 0
 11
1.52072
 21
21.24350
  0
LINE
  8
Engraving
 62
   7
 39
0.400
  6
CONTINUOUS
 10
1.52072
 20
21.24350
 30
 0
 11
1.39963
 21
21.18295
  0
LINE
  8
Engraving
 62
   7
 39
0.400
  6
CONTINUOUS
 10
1.39963
 20
21.18295
 30
 0
 11
1.29872
 21
21.08205
  0
LINE
  8
Engraving
 62
   7
 39
0.400
  6
CONTINUOUS
 10
1.29872
 20
21.08205
 30
 0
 11
1.21800
 21
20.94078
  0
LINE
  8
Engraving
 62
   7
 39
0.400
  6
CONTINUOUS
 10
1.21800
 20
20.94078
 30
 0
 11
1.19782
 21
20.75915
  0
LINE
  8
Engraving
 62
   7
 39
0.400
  6
CONTINUOUS
 10
1.19782
 20
20.75915
 30
 0
 11
1.19782
 21
20.61788
  0
LINE
  8
Engraving
 62
   7
 39
0.400
  6
CONTINUOUS
 10
1.19782
 20
20.61788
 30
 0
 11
1.21800
 21
20.45643
  0
LINE
  8
Engraving
 62
   7
 39
0.400
  6
CONTINUOUS
 10
1.21800
 20
20.45643
 30
 0
 11
1.27854
 21
20.33535
  0
LINE
  8
Engraving
 62
   7
 39
0.400
  6
CONTINUOUS
 10
1.27854
 20
20.33535
 30
 0
 11
1.39963
 21
20.21426
  0
LINE
  8
Engraving
 62
   7
 39
0.400
  6
CONTINUOUS
 10
1.39963
 20
20.21426
 30
 0
 11
1.52072
 21
20.15372
  0
LINE
  8
Engraving
 62
   7
 39
0.400
  6
CONTINUOUS
 10
1.52072
 20
20.15372
 30
 0
 11
1.70235
 21
20.11335
  0
LINE
  8
Engraving
 62
   7
 39
0.400
  6
CONTINUOUS
 10
1.70235
 20
20.11335
 30
 0
 11
2.69122
 21
20.11335
  0
LINE
  8
Engraving
 62
   7
 39
0.400
  6
CONTINUOUS
 10
2.69122
 20
20.11335
 30
 0
 11
3.29665
 21
20.11335
  0
LINE
  8
Engraving
 62
   7
 39
0.400
  6
CONTINUOUS
 10
3.29665
 20
20.11335
 30
 0
 11
3.49846
 21
20.15372
  0
LINE
  8
Engraving
 62
   7
 39
0.400
  6
CONTINUOUS
 10
3.49846
 20
20.15372
 30
 0
 11
3.65991
 21
20.25462
  0
LINE
  8
Engraving
 62
   7
 39
0.400
  6
CONTINUOUS
 10
3.65991
 20
20.25462
 30
 0
 11
3.76082
 21
20.39589
  0
LINE
  8
Engraving
 62
   7
 39
0.400
  6
CONTINUOUS
 10
3.76082
 20
20.39589
 30
 0
 11
3.80118
 21
20.61788
  0
LINE
  8
Engraving
 62
   7
 39
0.400
  6
CONTINUOUS
 10
3.80118
 20
20.61788
 30
 0
 11
3.80118
 21
20.75915
  0
LINE
  8
Engraving
 62
   7
 39
0.400
  6
CONTINUOUS
 10
3.80118
 20
20.75915
 30
 0
 11
3.76082
 21
20.98114
  0
LINE
  8
Engraving
 62
   7
 39
0.400
  6
CONTINUOUS
 10
3.76082
 20
20.98114
 30
 0
 11
3.63973
 21
21.14259
  0
LINE
  8
Engraving
 62
   7
 39
0.400
  6
CONTINUOUS
 10
3.63973
 20
21.14259
 30
 0
 11
3.47828
 21
21.24350
  0
LINE
  8
Engraving
 62
   7
 39
0.400
  6
CONTINUOUS
 10
3.47828
 20
21.24350
 30
 0
 11
3.29665
 21
21.28386
  0
LINE
  8
Engraving
 62
   7
 39
0.400
  6
CONTINUOUS
 10
3.29665
 20
21.28386
 30
 0
 11
2.65086
 21
21.28386
  0
LINE
  8
Engraving
 62
   7
 39
0.400
  6
CONTINUOUS
 10
2.65086
 20
21.28386
 30
 0
 11
2.46923
 21
21.24350
  0
LINE
  8
Engraving
 62
   7
 39
0.400
  6
CONTINUOUS
 10
2.46923
 20
21.24350
 30
 0
 11
2.28760
 21
21.12241
  0
LINE
  8
Engraving
 62
   7
 39
0.400
  6
CONTINUOUS
 10
2.28760
 20
21.12241
 30
 0
 11
2.18669
 21
20.98114
  0
LINE
  8
Engraving
 62
   7
 39
0.400
  6
CONTINUOUS
 10
2.18669
 20
20.98114
 30
 0
 11
2.12615
 21
20.71879
  0
LINE
  8
Engraving
 62
   7
 39
0.400
  6
CONTINUOUS
 10
2.12615
 20
20.71879
 30
 0
 11
2.16651
 21
20.47661
  0
LINE
  8
Engraving
 62
   7
 39
0.400
  6
CONTINUOUS
 10
2.16651
 20
20.47661
 30
 0
 11
2.28760
 21
20.27480
  0
LINE
  8
Engraving
 62
   7
 39
0.400
  6
CONTINUOUS
 10
2.28760
 20
20.27480
 30
 0
 11
2.52977
 21
20.11335
  0
LINE
  8
Engraving
 62
   7
 39
0.400
  6
CONTINUOUS
 10
3.78100
 20
22.71650
 30
 0
 11
1.21800
 21
22.71650
  0
LINE
  8
Engraving
 62
   7
 39
0.400
  6
CONTINUOUS
 10
1.21800
 20
22.71650
 30
 0
 11
1.21800
 21
22.61560
  0
LINE
  8
Engraving
 62
   7
 39
0.400
  6
CONTINUOUS
 10
1.21800
 20
22.61560
 30
 0
 11
3.01412
 21
21.78817
  0
LINE
  8
Engraving
 62
   7
 39
0.400
  6
CONTINUOUS
 10
3.01412
 20
21.78817
 30
 0
 11
3.01412
 21
23.09994
  0
LINE
  8
Engraving
 62
   7
 39
0.200
  6
CONTINUOUS
 10
13.21329
 20
4.13500
 30
 0
 11
12.56983
 21
2.93744
  0
LINE
  8
Engraving
 62
   7
 39
0.200
  6
CONTINUOUS
 10
12.56983
 20
2.93744
 30
 0
 11
11.92636
 21
4.13500
  0
LINE
  8
Engraving
 62
   7
 39
0.200
  6
CONTINUOUS
 10
12.56983
 20
2.93744
 30
 0
 11
12.56983
 21
1.86500
  0
LINE
  8
Engraving
 62
   7
 39
0.200
  6
CONTINUOUS
 10
13.66049
 20
2.66933
 30
 0
 11
13.66049
 21
2.24035
  0
LINE
  8
Engraving
 62
   7
 39
0.200
  6
CONTINUOUS
 10
13.66049
 20
2.24035
 30
 0
 11
13.69624
 21
2.07949
  0
LINE
  8
Engraving
 62
   7
 39
0.200
  6
CONTINUOUS
 10
13.69624
 20
2.07949
 30
 0
 11
13.78561
 21
1.95437
  0
LINE
  8
Engraving
 62
   7
 39
0.200
  6
CONTINUOUS
 10
13.78561
 20
1.95437
 30
 0
 11
13.94647
 21
1.86500
  0
LINE
  8
Engraving
 62
   7
 39
0.200
  6
CONTINUOUS
 10
13.94647
 20
1.86500
 30
 0
 11
14.07159
 21
1.84713
  0
LINE
  8
Engraving
 62
   7
 39
0.200
  6
CONTINUOUS
 10
14.07159
 20
1.84713
 30
 0
 11
14.23246
 21
1.84713
  0
LINE
  8
Engraving
 62
   7
 39
0.200
  6
CONTINUOUS
 10
14.23246
 20
1.84713
 30
 0
 11
14.37545
 21
1.88287
  0
LINE
  8
Engraving
 62
   7
 39
0.200
  6
CONTINUOUS
 10
14.37545
 20
1.88287
 30
 0
 11
14.48269
 21
1.97224
  0
LINE
  8
Engraving
 62
   7
 39
0.200
  6
CONTINUOUS
 10
14.48269
 20
1.97224
 30
 0
 11
14.57206
 21
2.11524
  0
LINE
  8
Engraving
 62
   7
 39
0.200
  6
CONTINUOUS
 10
14.57206
 20
2.11524
 30
 0
 11
14.60781
 21
2.24035
  0
LINE
  8
Engraving
 62
   7
 39
0.200
  6
CONTINUOUS
 10
14.60781
 20
2.24035
 30
 0
 11
14.60781
 21
3.06256
  0
LINE
  8
Engraving
 62
   7
 39
0.200
  6
CONTINUOUS
 10
14.60781
 20
3.06256
 30
 0
 11
14.55419
 21
3.25917
  0
LINE
  8
Engraving
 62
   7
 39
0.200
  6
CONTINUOUS
 10
14.55419
 20
3.25917
 30
 0
 11
14.46482
 21
3.36642
  0
LINE
  8
Engraving
 62
   7
 39
0.200
  6
CONTINUOUS
 10
14.46482
 20
3.36642
 30
 0
 11
14.33970
 21
3.45579
  0
LINE
  8
Engraving
 62
   7
 39
0.200
  6
CONTINUOUS
 10
14.33970
 20
3.45579
 30
 0
 11
14.19671
 21
3.47366
  0
LINE
  8
Engraving
 62
   7
 39
0.200
  6
CONTINUOUS
 10
14.19671
 20
3.47366
 30
 0
 11
14.07159
 21
3.47366
  0
LINE
  8
Engraving
 62
   7
 39
0.200
  6
CONTINUOUS
 10
14.07159
 20
3.47366
 30
 0
 11
13.89285
 21
3.43791
  0
LINE
  8
Engraving
 62
   7
 39
0.200
  6
CONTINUOUS
 10
13.89285
 20
3.43791
 30
 0
 11
13.76773
 21
3.34854
  0
LINE
  8
Engraving
 62
   7
 39
0.200
  6
CONTINUOUS
 10
13.76773
 20
3.34854
 30
 0
 11
13.69624
 21
3.24130
  0
LINE
  8
Engraving
 62
   7
 39
0.200
  6
CONTINUOUS
 10
13.69624
 20
3.24130
 30
 0
 11
13.66049
 21
3.06256
  0
LINE
  8
Engraving
 62
   7
 39
0.200
  6
CONTINUOUS
 10
13.66049
 20
3.06256
 30
 0
 11
13.66049
 21
2.66933
  0
LINE
  8
Engraving
 62
   7
 39
0.200
  6
CONTINUOUS
 10
15.05549
 20
1.86500
 30
 0
 11
15.05549
 21
4.13500
  0
LINE
  8
Engraving
 62
   7
 39
0.200
  6
CONTINUOUS
 10
15.05549
 20
4.13500
 30
 0
 11
15.21635
 21
4.13500
  0
LINE
  8
Engraving
 62
   7
 39
0.200
  6
CONTINUOUS
 10
15.21635
 20
4.13500
 30
 0
 11
15.87769
 21
1.86500
  0
LINE
  8
Engraving
 62
   7
 39
0.200
  6
CONTINUOUS
 10
15.87769
 20
1.86500
 30
 0
 11
16.52116
 21
4.13500
  0
LINE
  8
Engraving
 62
   7
 39
0.200
  6
CONTINUOUS
 10
16.52116
 20
4.13500
 30
 0
 11
16.68202
 21
4.13500
  0
LINE
  8
Engraving
 62
   7
 39
0.200
  6
CONTINUOUS
 10
16.68202
 20
4.13500
 30
 0
 11
16.68202
 21
1.86500
  0
LINE
  8
Engraving
 62
   7
 39
0.200
  6
CONTINUOUS
 10
17.12849
 20
2.66933
 30
 0
 11
17.12849
 21
2.24035
  0
LINE
  8
Engraving
 62
   7
 39
0.200
  6
CONTINUOUS
 10
17.12849
 20
2.24035
 30
 0
 11
17.16424
 21
2.07949
  0
LINE
  8
Engraving
 62
   7
 39
0.200
  6
CONTINUOUS
 10
17.16424
 20
2.07949
 30
 0
 11
17.25361
 21
1.95437
  0
LINE
  8
Engraving
 62
   7
 39
0.200
  6
CONTINUOUS
 10
17.25361
 20
1.95437
 30
 0
 11
17.41447
 21
1.86500
  0
LINE
  8
Engraving
 62
   7
 39
0.200
  6
CONTINUOUS
 10
17.41447
 20
1.86500
 30
 0
 11
17.53959
 21
1.84713
  0
LINE
  8
Engraving
 62
   7
 39
0.200
  6
CONTINUOUS
 10
17.53959
 20
1.84713
 30
 0
 11
17.70046
 21
1.84713
  0
LINE
  8
Engraving
 62
   7
 39
0.200
  6
CONTINUOUS
 10
17.70046
 20
1.84713
 30
 0
 11
17.84345
 21
1.88287
  0
LINE
  8
Engraving
 62
   7
 39
0.200
  6
CONTINUOUS
 10
17.84345
 20
1.88287
 30
 0
 11
17.95069
 21
1.97224
  0
LINE
  8
Engraving
 62
   7
 39
0.200
  6
CONTINUOUS
 10
17.95069
 20
1.97224
 30
 0
 11
18.04006
 21
2.11524
  0
LINE
  8
Engraving
 62
   7
 39
0.200
  6
CONTINUOUS
 10
18.04006
 20
2.11524
 30
 0
 11
18.07581
 21
2.24035
  0
LINE
  8
Engraving
 62
   7
 39
0.200
  6
CONTINUOUS
 10
18.07581
 20
2.24035
 30
 0
 11
18.07581
 21
3.06256
  0
LINE
  8
Engraving
 62
   7
 39
0.200
  6
CONTINUOUS
 10
18.07581
 20
3.06256
 30
 0
 11
18.02219
 21
3.25917
  0
LINE
  8
Engraving
 62
   7
 39
0.200
  6
CONTINUOUS
 10
18.02219
 20
3.25917
 30
 0
 11
17.93282
 21
3.36642
  0
LINE
  8
Engraving
 62
   7
 39
0.200
  6
CONTINUOUS
 10
17.93282
 20
3.36642
 30
 0
 11
17.80770
 21
3.45579
  0
LINE
  8
Engraving
 62
   7
 39
0.200
  6
CONTINUOUS
 10
17.80770
 20
3.45579
 30
 0
 11
17.66471
 21
3.47366
  0
LINE
  8
Engraving
 62
   7
 39
0.200
  6
CONTINUOUS
 10
17.66471
 20
3.47366
 30
 0
 11
17.53959
 21
3.47366
  0
LINE
  8
Engraving
 62
   7
 39
0.200
  6
CONTINUOUS
 10
17.53959
 20
3.47366
 30
 0
 11
17.36085
 21
3.43791
  0
LINE
  8
Engraving
 62
   7
 39
0.200
  6
CONTINUOUS
 10
17.36085
 20
3.43791
 30
 0
 11
17.23573
 21
3.34854
  0
LINE
  8
Engraving
 62
   7
 39
0.200
  6
CONTINUOUS
 10
17.23573
 20
3.34854
 30
 0
 11
17.16424
 21
3.24130
  0
LINE
  8
Engraving
 62
   7
 39
0.200
  6
CONTINUOUS
 10
17.16424
 20
3.24130
 30
 0
 11
17.12849
 21
3.06256
  0
LINE
  8
Engraving
 62
   7
 39
0.200
  6
CONTINUOUS
 10
17.12849
 20
3.06256
 30
 0
 11
17.12849
 21
2.66933
  0
LINE
  8
Engraving
 62
   7
 39
0.400
  6
CONTINUOUS
 10
1.96470
 20
94.20068
 30
 0
 11
1.66198
 21
94.20068
  0
LINE
  8
Engraving
 62
   7
 39
0.400
  6
CONTINUOUS
 10
1.66198
 20
94.20068
 30
 0
 11
1.52072
 21
94.18050
  0
LINE
  8
Engraving
 62
   7
 39
0.400
  6
CONTINUOUS
 10
1.52072
 20
94.18050
 30
 0
 11
1.37945
 21
94.11995
  0
LINE
  8
Engraving
 62
   7
 39
0.400
  6
CONTINUOUS
 10
1.37945
 20
94.11995
 30
 0
 11
1.29872
 21
94.01905
  0
LINE
  8
Engraving
 62
   7
 39
0.400
  6
CONTINUOUS
 10
1.29872
 20
94.01905
 30
 0
 11
1.23818
 21
93.91814
  0
LINE
  8
Engraving
 62
   7
 39
0.400
  6
CONTINUOUS
 10
1.23818
 20
93.91814
 30
 0
 11
1.19782
 21
93.79706
  0
LINE
  8
Engraving
 62
   7
 39
0.400
  6
CONTINUOUS
 10
1.19782
 20
93.79706
 30
 0
 11
1.19782
 21
93.51452
  0
LINE
  8
Engraving
 62
   7
 39
0.400
  6
CONTINUOUS
 10
1.19782
 20
93.51452
 30
 0
 11
1.21800
 21
93.33289
  0
LINE
  8
Engraving
 62
   7
 39
0.400
  6
CONTINUOUS
 10
1.21800
 20
93.33289
 30
 0
 11
1.31891
 21
93.19162
  0
LINE
  8
Engraving
 62
   7
 39
0.400
  6
CONTINUOUS
 10
1.31891
 20
93.19162
 30
 0
 11
1.43999
 21
93.11090
  0
LINE
  8
Engraving
 62
   7
 39
0.400
  6
CONTINUOUS
 10
1.43999
 20
93.11090
 30
 0
 11
1.60144
 21
93.05035
  0
LINE
  8
Engraving
 62
   7
 39
0.400
  6
CONTINUOUS
 10
1.60144
 20
93.05035
 30
 0
 11
3.31683
 21
93.05035
  0
LINE
  8
Engraving
 62
   7
 39
0.400
  6
CONTINUOUS
 10
3.31683
 20
93.05035
 30
 0
 11
3.49846
 21
93.09072
  0
LINE
  8
Engraving
 62
   7
 39
0.400
  6
CONTINUOUS
 10
3.49846
 20
93.09072
 30
 0
 11
3.61955
 21
93.15126
  0
LINE
  8
Engraving
 62
   7
 39
0.400
  6
CONTINUOUS
 10
3.61955
 20
93.15126
 30
 0
 11
3.72046
 21
93.27235
  0
LINE
  8
Engraving
 62
   7
 39
0.400
  6
CONTINUOUS
 10
3.72046
 20
93.27235
 30
 0
 11
3.78100
 21
93.37325
  0
LINE
  8
Engraving
 62
   7
 39
0.400
  6
CONTINUOUS
 10
3.78100
 20
93.37325
 30
 0
 11
3.80118
 21
93.53470
  0
LINE
  8
Engraving
 62
   7
 39
0.400
  6
CONTINUOUS
 10
3.80118
 20
93.53470
 30
 0
 11
3.80118
 21
93.73651
  0
LINE
  8
Engraving
 62
   7
 39
0.400
  6
CONTINUOUS
 10
3.80118
 20
93.73651
 30
 0
 11
3.78100
 21
93.87778
  0
LINE
  8
Engraving
 62
   7
 39
0.400
  6
CONTINUOUS
 10
3.78100
 20
93.87778
 30
 0
 11
3.70028
 21
94.03923
  0
LINE
  8
Engraving
 62
   7
 39
0.400
  6
CONTINUOUS
 10
3.70028
 20
94.03923
 30
 0
 11
3.59937
 21
94.14013
  0
LINE
  8
Engraving
 62
   7
 39
0.400
  6
CONTINUOUS
 10
3.59937
 20
94.14013
 30
 0
 11
3.43792
 21
94.22086
  0
LINE
  8
Engraving
 62
   7
 39
0.400
  6
CONTINUOUS
 10
3.43792
 20
94.22086
 30
 0
 11
3.31683
 21
94.22086
  0
LINE
  8
Engraving
 62
   7
 39
0.400
  6
CONTINUOUS
 10
3.31683
 20
94.22086
 30
 0
 11
3.07466
 21
94.22086
  0
LINE
  8
Engraving
 62
   7
 39
0.400
  6
CONTINUOUS
 10
1.21800
 20
94.74635
 30
 0
 11
3.78100
 21
94.74635
  0
LINE
  8
Engraving
 62
   7
 39
0.400
  6
CONTINUOUS
 10
3.78100
 20
94.74635
 30
 0
 11
3.78100
 21
95.75541
  0
LINE
  8
Engraving
 62
   7
 39
0.400
  6
CONTINUOUS
 10
1.21800
 20
96.27935
 30
 0
 11
3.78100
 21
96.27935
  0
LINE
  8
Engraving
 62
   7
 39
0.400
  6
CONTINUOUS
 10
1.21800
 20
97.53058
 30
 0
 11
2.38850
 21
96.27935
  0
LINE
  8
Engraving
 62
   7
 39
0.400
  6
CONTINUOUS
 10
2.38850
 20
96.27935
 30
 0
 11
3.78100
 21
97.57094
  0
LINE
  8
Engraving
 62
   7
 39
0.400
  6
CONTINUOUS
 10
2.46923
 20
84.08506
 30
 0
 11
2.46923
 21
84.26669
  0
LINE
  8
Engraving
 62
   7
 39
0.400
  6
CONTINUOUS
 10
2.46923
 20
84.26669
 30
 0
 11
2.57013
 21
84.42813
  0
LINE
  8
Engraving
 62
   7
 39
0.400
  6
CONTINUOUS
 10
2.57013
 20
84.42813
 30
 0
 11
2.71140
 21
84.52904
  0
LINE
  8
Engraving
 62
   7
 39
0.400
  6
CONTINUOUS
 10
2.71140
 20
84.52904
 30
 0
 11
2.85267
 21
84.54922
  0
LINE
  8
Engraving
 62
   7
 39
0.400
  6
CONTINUOUS
 10
2.85267
 20
84.54922
 30
 0
 11
3.47828
 21
84.54922
  0
LINE
  8
Engraving
 62
   7
 39
0.400
  6
CONTINUOUS
 10
3.47828
 20
84.54922
 30
 0
 11
3.61955
 21
84.56940
  0
LINE
  8
Engraving
 62
   7
 39
0.400
  6
CONTINUOUS
 10
3.61955
 20
84.56940
 30
 0
 11
3.78100
 21
84.58958
  0
LINE
  8
Engraving
 62
   7
 39
0.400
  6
CONTINUOUS
 10
3.78100
 20
83.33835
 30
 0
 11
1.21800
 21
83.33835
  0
LINE
  8
Engraving
 62
   7
 39
0.400
  6
CONTINUOUS
 10
1.21800
 20
83.33835
 30
 0
 11
1.21800
 21
84.06487
  0
LINE
  8
Engraving
 62
   7
 39
0.400
  6
CONTINUOUS
 10
1.21800
 20
84.06487
 30
 0
 11
1.27854
 21
84.28687
  0
LINE
  8
Engraving
 62
   7
 39
0.400
  6
CONTINUOUS
 10
1.27854
 20
84.28687
 30
 0
 11
1.37945
 21
84.42813
  0
LINE
  8
Engraving
 62
   7
 39
0.400
  6
CONTINUOUS
 10
1.37945
 20
84.42813
 30
 0
 11
1.52072
 21
84.52904
  0
LINE
  8
Engraving
 62
   7
 39
0.400
  6
CONTINUOUS
 10
1.52072
 20
84.52904
 30
 0
 11
1.70235
 21
84.54922
  0
LINE
  8
Engraving
 62
   7
 39
0.400
  6
CONTINUOUS
 10
1.70235
 20
84.54922
 30
 0
 11
1.98488
 21
84.54922
  0
LINE
  8
Engraving
 62
   7
 39
0.400
  6
CONTINUOUS
 10
1.98488
 20
84.54922
 30
 0
 11
2.14633
 21
84.52904
  0
LINE
  8
Engraving
 62
   7
 39
0.400
  6
CONTINUOUS
 10
2.14633
 20
84.52904
 30
 0
 11
2.30778
 21
84.42813
  0
LINE
  8
Engraving
 62
   7
 39
0.400
  6
CONTINUOUS
 10
2.30778
 20
84.42813
 30
 0
 11
2.40869
 21
84.30705
  0
LINE
  8
Engraving
 62
   7
 39
0.400
  6
CONTINUOUS
 10
2.40869
 20
84.30705
 30
 0
 11
2.46923
 21
84.08506
  0
LINE
  8
Engraving
 62
   7
 39
0.400
  6
CONTINUOUS
 10
2.46923
 20
84.08506
 30
 0
 11
2.46923
 21
83.33835
  0
LINE
  8
Engraving
 62
   7
 39
0.400
  6
CONTINUOUS
 10
2.97376
 20
85.11435
 30
 0
 11
3.31683
 21
85.11435
  0
LINE
  8
Engraving
 62
   7
 39
0.400
  6
CONTINUOUS
 10
3.31683
 20
85.11435
 30
 0
 11
3.49846
 21
85.15472
  0
LINE
  8
Engraving
 62
   7
 39
0.400
  6
CONTINUOUS
 10
3.49846
 20
85.15472
 30
 0
 11
3.65991
 21
85.25562
  0
LINE
  8
Engraving
 62
   7
 39
0.400
  6
CONTINUOUS
 10
3.65991
 20
85.25562
 30
 0
 11
3.76082
 21
85.39689
  0
LINE
  8
Engraving
 62
   7
 39
0.400
  6
CONTINUOUS
 10
3.76082
 20
85.39689
 30
 0
 11
3.80118
 21
85.59870
  0
LINE
  8
Engraving
 62
   7
 39
0.400
  6
CONTINUOUS
 10
3.80118
 20
85.59870
 30
 0
 11
3.80118
 21
85.84087
  0
LINE
  8
Engraving
 62
   7
 39
0.400
  6
CONTINUOUS
 10
3.80118
 20
85.84087
 30
 0
 11
3.78100
 21
85.98214
  0
LINE
  8
Engraving
 62
   7
 39
0.400
  6
CONTINUOUS
 10
3.78100
 20
85.98214
 30
 0
 11
3.68009
 21
86.16377
  0
LINE
  8
Engraving
 62
   7
 39
0.400
  6
CONTINUOUS
 10
3.68009
 20
86.16377
 30
 0
 11
3.51865
 21
86.28486
  0
LINE
  8
Engraving
 62
   7
 39
0.400
  6
CONTINUOUS
 10
3.51865
 20
86.28486
 30
 0
 11
3.31683
 21
86.32522
  0
LINE
  8
Engraving
 62
   7
 39
0.400
  6
CONTINUOUS
 10
3.31683
 20
86.32522
 30
 0
 11
3.17557
 21
86.32522
  0
LINE
  8
Engraving
 62
   7
 39
0.400
  6
CONTINUOUS
 10
3.17557
 20
86.32522
 30
 0
 11
3.03430
 21
86.28486
  0
LINE
  8
Engraving
 62
   7
 39
0.400
  6
CONTINUOUS
 10
3.03430
 20
86.28486
 30
 0
 11
2.87285
 21
86.20413
  0
LINE
  8
Engraving
 62
   7
 39
0.400
  6
CONTINUOUS
 10
2.87285
 20
86.20413
 30
 0
 11
2.79213
 21
86.12341
  0
LINE
  8
Engraving
 62
   7
 39
0.400
  6
CONTINUOUS
 10
2.79213
 20
86.12341
 30
 0
 11
2.69122
 21
86.00232
  0
LINE
  8
Engraving
 62
   7
 39
0.400
  6
CONTINUOUS
 10
2.69122
 20
86.00232
 30
 0
 11
2.16651
 21
85.41707
  0
LINE
  8
Engraving
 62
   7
 39
0.400
  6
CONTINUOUS
 10
2.16651
 20
85.41707
 30
 0
 11
2.08579
 21
85.31617
  0
LINE
  8
Engraving
 62
   7
 39
0.400
  6
CONTINUOUS
 10
2.08579
 20
85.31617
 30
 0
 11
1.96470
 21
85.21526
  0
LINE
  8
Engraving
 62
   7
 39
0.400
  6
CONTINUOUS
 10
1.96470
 20
85.21526
 30
 0
 11
1.90416
 21
85.17490
  0
LINE
  8
Engraving
 62
   7
 39
0.400
  6
CONTINUOUS
 10
1.90416
 20
85.17490
 30
 0
 11
1.80325
 21
85.15472
  0
LINE
  8
Engraving
 62
   7
 39
0.400
  6
CONTINUOUS
 10
1.80325
 20
85.15472
 30
 0
 11
1.62162
 21
85.15472
  0
LINE
  8
Engraving
 62
   7
 39
0.400
  6
CONTINUOUS
 10
1.62162
 20
85.15472
 30
 0
 11
1.43999
 21
85.21526
  0
LINE
  8
Engraving
 62
   7
 39
0.400
  6
CONTINUOUS
 10
1.43999
 20
85.21526
 30
 0
 11
1.31891
 21
85.29598
  0
LINE
  8
Engraving
 62
   7
 39
0.400
  6
CONTINUOUS
 10
1.31891
 20
85.29598
 30
 0
 11
1.23818
 21
85.41707
  0
LINE
  8
Engraving
 62
   7
 39
0.400
  6
CONTINUOUS
 10
1.23818
 20
85.41707
 30
 0
 11
1.19782
 21
85.61888
  0
LINE
  8
Engraving
 62
   7
 39
0.400
  6
CONTINUOUS
 10
1.19782
 20
85.61888
 30
 0
 11
1.19782
 21
85.82069
  0
LINE
  8
Engraving
 62
   7
 39
0.400
  6
CONTINUOUS
 10
1.19782
 20
85.82069
 30
 0
 11
1.21800
 21
85.94178
  0
LINE
  8
Engraving
 62
   7
 39
0.400
  6
CONTINUOUS
 10
1.21800
 20
85.94178
 30
 0
 11
1.27854
 21
86.08305
  0
LINE
  8
Engraving
 62
   7
 39
0.400
  6
CONTINUOUS
 10
1.27854
 20
86.08305
 30
 0
 11
1.37945
 21
86.18395
  0
LINE
  8
Engraving
 62
   7
 39
0.400
  6
CONTINUOUS
 10
1.37945
 20
86.18395
 30
 0
 11
1.52072
 21
86.26468
  0
LINE
  8
Engraving
 62
   7
 39
0.400
  6
CONTINUOUS
 10
1.52072
 20
86.26468
 30
 0
 11
1.66198
 21
86.28486
  0
LINE
  8
Engraving
 62
   7
 39
0.400
  6
CONTINUOUS
 10
1.66198
 20
86.28486
 30
 0
 11
1.84361
 21
86.28486
  0
LINE
  8
Engraving
 62
   7
 39
0.400
  6
CONTINUOUS
 10
3.78100
 20
87.51533
 30
 0
 11
1.21800
 21
87.51533
  0
LINE
  8
Engraving
 62
   7
 39
0.400
  6
CONTINUOUS
 10
1.21800
 20
86.82917
 30
 0
 11
1.21800
 21
88.22167
  0
LINE
  8
Engraving
 62
   7
 39
0.800
  6
CONTINUOUS
 10
4.49044
 20
112.00143
 30
 0
 11
4.49044
 21
109.33700
  0
LINE
  8
Engraving
 62
   7
 39
0.800
  6
CONTINUOUS
 10
4.49044
 20
109.33700
 30
 0
 11
6.14561
 21
109.33700
  0
LINE
  8
Engraving
 62
   7
 39
0.800
  6
CONTINUOUS
 10
6.14561
 20
109.33700
 30
 0
 11
6.46857
 21
109.41774
  0
LINE
  8
Engraving
 62
   7
 39
0.800
  6
CONTINUOUS
 10
6.46857
 20
109.41774
 30
 0
 11
6.75117
 21
109.57922
  0
LINE
  8
Engraving
 62
   7
 39
0.800
  6
CONTINUOUS
 10
6.75117
 20
109.57922
 30
 0
 11
6.95302
 21
109.82144
  0
LINE
  8
Engraving
 62
   7
 39
0.800
  6
CONTINUOUS
 10
6.95302
 20
109.82144
 30
 0
 11
7.11450
 21
110.18477
  0
LINE
  8
Engraving
 62
   7
 39
0.800
  6
CONTINUOUS
 10
7.11450
 20
110.18477
 30
 0
 11
7.11450
 21
110.42699
  0
LINE
  8
Engraving
 62
   7
 39
0.800
  6
CONTINUOUS
 10
7.11450
 20
110.42699
 30
 0
 11
7.11450
 21
113.49512
  0
LINE
  8
Engraving
 62
   7
 39
0.800
  6
CONTINUOUS
 10
7.11450
 20
113.49512
 30
 0
 11
7.07413
 21
113.73734
  0
LINE
  8
Engraving
 62
   7
 39
0.800
  6
CONTINUOUS
 10
7.07413
 20
113.73734
 30
 0
 11
6.95302
 21
114.01993
  0
LINE
  8
Engraving
 62
   7
 39
0.800
  6
CONTINUOUS
 10
6.95302
 20
114.01993
 30
 0
 11
6.75117
 21
114.22178
  0
LINE
  8
Engraving
 62
   7
 39
0.800
  6
CONTINUOUS
 10
6.75117
 20
114.22178
 30
 0
 11
6.46857
 21
114.42363
  0
LINE
  8
Engraving
 62
   7
 39
0.800
  6
CONTINUOUS
 10
6.46857
 20
114.42363
 30
 0
 11
6.14561
 21
114.46400
  0
LINE
  8
Engraving
 62
   7
 39
0.800
  6
CONTINUOUS
 10
6.14561
 20
114.46400
 30
 0
 11
4.49044
 21
114.46400
  0
LINE
  8
Engraving
 62
   7
 39
0.800
  6
CONTINUOUS
 10
4.49044
 20
114.46400
 30
 0
 11
4.49044
 21
112.00143
  0
LINE
  8
Engraving
 62
   7
 39
0.800
  6
CONTINUOUS
 10
8.16481
 20
114.46400
 30
 0
 11
8.16481
 21
109.33700
  0
LINE
  8
Engraving
 62
   7
 39
0.800
  6
CONTINUOUS
 10
9.21481
 20
114.46400
 30
 0
 11
10.66813
 21
109.33700
  0
LINE
  8
Engraving
 62
   7
 39
0.800
  6
CONTINUOUS
 10
10.66813
 20
109.33700
 30
 0
 11
12.12146
 21
114.46400
  0
ARC
  8
Engraving
 62
   7
 39
0.800
  6
CONTINUOUS
 10
14.33562
 20
113.35991
 30
 0
 40
1.17742
 50
103.59010
 51
197.25422
  0
ARC
  8
Engraving
 62
   7
 39
0.800
  6
CONTINUOUS
 10
14.37360
 20
113.44386
 30
 0
 40
1.10621
 50
6.85332
 51
106.52541
  0
ARC
  8
Engraving
 62
   7
 39
0.800
  6
CONTINUOUS
 10
13.02642
 20
113.21319
 30
 0
 40
2.47223
 50
-32.62504
 51
8.43552
  0
ARC
  8
Engraving
 62
   7
 39
0.800
  6
CONTINUOUS
 10
10.04932
 20
114.91863
 30
 0
 40
5.90148
 50
312.79903
 51
329.01325
  0
LINE
  8
Engraving
 62
   7
 39
0.800
  6
CONTINUOUS
 10
14.05895
 20
110.58847
 30
 0
 11
13.13044
 21
109.61959
  0
LINE
  8
Engraving
 62
   7
 39
0.800
  6
CONTINUOUS
 10
13.13044
 20
109.61959
 30
 0
 11
13.13044
 21
109.33700
  0
LINE
  8
Engraving
 62
   7
 39
0.800
  6
CONTINUOUS
 10
13.13044
 20
109.33700
 30
 0
 11
15.51228
 21
109.33700
  0
LINE
  8
Engraving
 62
   7
 39
0.800
  6
CONTINUOUS
 10
15.51228
 20
109.33700
 30
 0
 11
13.13044
 21
109.33700
  0
CIRCLE
  8
Contour
 62
   7
 39
0.100
  6
CONTINUOUS
 10
7.50000
 20
125.50000
 30
 0
 40
1.50000
  0
CIRCLE
  8
Contour
 62
   7
 39
0.100
  6
CONTINUOUS
 10
7.50000
 20
3.00000
 30
 0
 40
1.50000
  0
CIRCLE
  8
Contour
 62
   7
 39
0.100
  6
CONTINUOUS
 10
8.75000
 20
95.30500
 30
 0
 40
3.00000
  0
CIRCLE
  8
Contour
 62
   7
 39
0.100
  6
CONTINUOUS
 10
8.75000
 20
85.77500
 30
 0
 40
3.00000
  0
CIRCLE
  8
Contour
 62
   7
 39
0.100
  6
CONTINUOUS
 10
8.75000
 20
68.62500
 30
 0
 40
3.00000
  0
CIRCLE
  8
Contour
 62
   7
 39
0.100
  6
CONTINUOUS
 10
8.75000
 20
59.09500
 30
 0
 40
3.00000
  0
CIRCLE
  8
Contour
 62
   7
 39
0.100
  6
CONTINUOUS
 10
8.75000
 20
49.56500
 30
 0
 40
3.00000
  0
CIRCLE
  8
Contour
 62
   7
 39
0.100
  6
CONTINUOUS
 10
8.75000
 20
40.03500
 30
 0
 40
3.00000
  0
CIRCLE
  8
Contour
 62
   7
 39
0.100
  6
CONTINUOUS
 10
8.75000
 20
30.50500
 30
 0
 40
3.00000
  0
CIRCLE
  8
Contour
 62
   7
 39
0.100
  6
CONTINUOUS
 10
8.75000
 20
20.97500
 30
 0
 40
3.00000
  0
CIRCLE
  8
Contour
 62
   7
 39
0.100
  6
CONTINUOUS
 10
15.74000
 20
71.80400
 30
 0
 40
1.75000
  0
CIRCLE
  8
Contour
 62
   7
 39
0.100
  6
CONTINUOUS
 10
15.74000
 20
62.27500
 30
 0
 40
1.75000
  0
CIRCLE
  8
Contour
 62
   7
 39
0.100
  6
CONTINUOUS
 10
15.74000
 20
52.74500
 30
 0
 40
1.75000
  0
CIRCLE
  8
Contour
 62
   7
 39
0.100
  6
CONTINUOUS
 10
15.74000
 20
43.21500
 30
 0
 40
1.75000
  0
CIRCLE
  8
Contour
 62
   7
 39
0.100
  6
CONTINUOUS
 10
15.74000
 20
33.68500
 30
 0
 40
1.75000
  0
CIRCLE
  8
Contour
 62
   7
 39
0.100
  6
CONTINUOUS
 10
15.74000
 20
24.15500
 30
 0
 40
1.75000
  0
ENDSEC
  0
EOF
